# xmcd CD database file
#
# Track frame offsets:
#	150
#	9820
#	23794
#	38515
#	55240
#	67752
#	78046
#	95297
#	105213
#	116503
#	125943
#	137450
#
# Disc length: 1979 seconds
#
# Revision: 0
# Processed by: cddbd v1.5.2PL0 Copyright (c) Steve Scherf et al.
# Submitted via: CDex 1.51
#
DISCID=7f07b90c
DTITLE=Various Artist - Grand Ole Opry Live Classics-Great Number 1 Hits
DYEAR=2006
DGENRE=Country
TTITLE0=Ernest Tubb/Walking The Floor Over You
TTITLE1=Ernest Tubb/Young Love
TTITLE2=Ernest Tubb/Still
TTITLE3=Ernest Tubb/El Paso
TTITLE4=Hank Snow/I'm Movin' On
TTITLE5=Faron Young and Willie Nelson/Hello Walls
TTITLE6=Tammy Wynette/I Don't Wanna Play House
TTITLE7=Leroy Van Dyke/Walk On By
TTITLE8=Faron Young/Seet Dreams
TTITLE9=Johnny Cash/Folsom Prison Blues
TTITLE10=Sonny James/You're The Only World I Know
TTITLE11=Porter Wagoner/A Satisfied Mind
EXTD=YEAR: 2006
EXTT0=
EXTT1=
EXTT2=
EXTT3=
EXTT4=
EXTT5=
EXTT6=
EXTT7=
EXTT8=
EXTT9=
EXTT10=
EXTT11=
PLAYORDER=
